<?xml version="1.0" encoding="UTF-8"?>
<svg id="Camada_1" data-name="Camada 1" xmlns="http://www.w3.org/2000/svg" xmlns:xlink="http://www.w3.org/1999/xlink" viewBox="0 0 1080 1080">
  <defs>
    <style>
      .cls-1 {
        fill: url(#Gradiente_sem_nome_26);
      }

      .cls-2 {
        fill: #da810b;
      }

      .cls-3 {
        fill: url(#Gradiente_sem_nome_10);
      }
    </style>
    <linearGradient id="Gradiente_sem_nome_26" data-name="Gradiente sem nome 26" x1="412.83" y1="371.63" x2="412.83" y2="793.35" gradientUnits="userSpaceOnUse">
      <stop offset=".21" stop-color="#29559e"/>
      <stop offset="1" stop-color="#59b7ea"/>
    </linearGradient>
    <linearGradient id="Gradiente_sem_nome_10" data-name="Gradiente sem nome 10" x1="668.64" y1="327.45" x2="668.64" y2="681.08" gradientUnits="userSpaceOnUse">
      <stop offset="0" stop-color="#818380"/>
      <stop offset="1" stop-color="#000"/>
    </linearGradient>
  </defs>
  <path class="cls-1" d="M558.39,614.64c38.87,65.74,52.23,143.19-11.5,193.7-25.43,20.15-54.93,27.93-86.94,22.82-87.98-14.03-165.72-88.61-200.53-168.21-51.9-118.68-20.51-254.89,75.08-341.21,41.2-37.21,91.49-62.04,146.96-73.15-3.6,11.23-10.86,15.92-16.5,23.14-28.96,37.05-37.32,83.86-26.06,129.93,16.2,66.27,60.28,122.25,98.57,177.57l20.93,35.4ZM508.59,784.36c29.62-12.83,45.41-44.87,41.27-76.58-4.88-37.34-21-70.22-42.83-100.46l-49.56-68.67-23.03-35.24c-25.03-38.3-41.86-81.47-42.9-127.61l-1.06-46.76-29.71,24.08c-39.7,34.98-65.75,79.08-78.92,130.28-13.56,52.71-9.6,104.78,10.68,155.23,15.17,37.73,35.23,71.61,66.3,98.74,27.86,24.32,61.37,41.32,97.38,50.45,17.34,4.4,34.4,4.33,52.37-3.45Z"/>
  <path class="cls-3" d="M692.69,745.63c54.32-34.36,91.64-89.45,108.6-151.13l44.15-.12c-23.38,110.44-105.58,196.72-214,226.3-10.23,2.79-18.89,6.63-29.22,4.69l25.96-35.26c39.65-67.56,17.38-134.21-18.92-198.66-34.6-61.43-84.27-107.58-107.78-180.28-8.56-26.47-12.62-53.15-7.24-80.47,11.05-56.19,79.37-98.27,140.25-84.82,49.17,10.86,90.62,38.66,125.81,73.33,25.28,24.9,46.75,51.41,61.34,83.98l-42.38.07c-38.24-60.72-131.04-135.12-199.34-111.74-30.03,10.28-48.07,40.86-45.18,72.74,2.96,32.53,15.19,62.52,33.51,88.95l46.57,67.17c15.91,22.95,31.65,44.41,44.56,69.19,24.96,47.9,37.49,98.4,33.29,156.05Z"/>
  <path class="cls-2" d="M387.89,848.41c-26.22-12.88-47.78-28.07-69.91-44.71-3.77-2.84-4.19-9.39-3.13-12.33,1.68-4.67,6.94-7.4,12.77-6.68,21.61,2.64,89.73,85.23,191.01,54.26,55.5-16.97,90.68-75.61,85.99-133.8-4.85-60.18-45.29-116.36-80.28-166-41.26-58.52-81.25-114.24-75.92-189.17,4.71-66.22,60.05-124.52,125.47-134.27,31.49-4.69,62.32-3.34,90.65,11.26,5.33,2.75,7.85,5.13,6.96,10.72-.85,5.36-5.87,7.39-11.75,5.85l-33.23-8.72c-58.62-7.99-119.11,26.28-143.66,87.06-19.91,49.31,8.68,120.93,39.42,165.64l61.5,89.45c17.06,24.81,29.79,50.29,40.38,78.14,22.43,59.04,7.28,121.47-39.31,163.89-13.5,12.29-30.72,31.15-49.22,36.71-50.18,15.09-99.46,16.44-147.74-7.29Z"/>
</svg>